<mxfile host="app.diagrams.net" modified="2021-01-23T07:55:53.420Z" agent="5.0 (Macintosh; Intel Mac OS X 10_15_7) AppleWebKit/537.36 (KHTML, like Gecko) Chrome/87.0.4280.141 Safari/537.36" etag="CuikxmOKI3erNlqff5_x" version="14.2.6" type="github">
  <diagram id="YpykJgoKhz_wXvVTD6iY" name="Page-1">
    <mxGraphModel dx="2066" dy="1163" grid="1" gridSize="10" guides="1" tooltips="1" connect="1" arrows="1" fold="1" page="1" pageScale="1" pageWidth="1169" pageHeight="827" math="0" shadow="0">
      <root>
        <mxCell id="0" />
        <mxCell id="1" parent="0" />
        <mxCell id="y_ctaizk5qaqds1_ViT8-1" value="&lt;font size=&quot;1&quot;&gt;Bootstrap Class Loader&lt;/font&gt;" style="rounded=1;whiteSpace=wrap;html=1;" vertex="1" parent="1">
          <mxGeometry x="400" y="150" width="240" height="50" as="geometry" />
        </mxCell>
        <mxCell id="y_ctaizk5qaqds1_ViT8-5" style="edgeStyle=orthogonalEdgeStyle;rounded=0;orthogonalLoop=1;jettySize=auto;html=1;exitX=0.5;exitY=0;exitDx=0;exitDy=0;entryX=0.5;entryY=1;entryDx=0;entryDy=0;" edge="1" parent="1" source="y_ctaizk5qaqds1_ViT8-2" target="y_ctaizk5qaqds1_ViT8-1">
          <mxGeometry relative="1" as="geometry" />
        </mxCell>
        <mxCell id="y_ctaizk5qaqds1_ViT8-2" value="&lt;font size=&quot;1&quot;&gt;Extension Class Loader&lt;/font&gt;" style="rounded=1;whiteSpace=wrap;html=1;" vertex="1" parent="1">
          <mxGeometry x="400" y="240" width="240" height="50" as="geometry" />
        </mxCell>
        <mxCell id="y_ctaizk5qaqds1_ViT8-6" style="edgeStyle=orthogonalEdgeStyle;rounded=0;orthogonalLoop=1;jettySize=auto;html=1;exitX=0.5;exitY=0;exitDx=0;exitDy=0;entryX=0.5;entryY=1;entryDx=0;entryDy=0;" edge="1" parent="1" source="y_ctaizk5qaqds1_ViT8-3" target="y_ctaizk5qaqds1_ViT8-2">
          <mxGeometry relative="1" as="geometry" />
        </mxCell>
        <mxCell id="y_ctaizk5qaqds1_ViT8-3" value="&lt;font size=&quot;1&quot;&gt;Application Class Loader&lt;/font&gt;" style="rounded=1;whiteSpace=wrap;html=1;" vertex="1" parent="1">
          <mxGeometry x="400" y="330" width="240" height="50" as="geometry" />
        </mxCell>
        <mxCell id="y_ctaizk5qaqds1_ViT8-10" style="edgeStyle=orthogonalEdgeStyle;rounded=0;orthogonalLoop=1;jettySize=auto;html=1;exitX=0.5;exitY=0;exitDx=0;exitDy=0;" edge="1" parent="1" source="y_ctaizk5qaqds1_ViT8-7">
          <mxGeometry relative="1" as="geometry">
            <mxPoint x="520" y="380" as="targetPoint" />
          </mxGeometry>
        </mxCell>
        <mxCell id="y_ctaizk5qaqds1_ViT8-7" value="User C&lt;span style=&quot;font-size: 12px&quot;&gt;ustom Class Loader&lt;/span&gt;" style="rounded=1;whiteSpace=wrap;html=1;" vertex="1" parent="1">
          <mxGeometry x="260" y="440" width="220" height="60" as="geometry" />
        </mxCell>
        <mxCell id="y_ctaizk5qaqds1_ViT8-9" style="edgeStyle=orthogonalEdgeStyle;rounded=0;orthogonalLoop=1;jettySize=auto;html=1;exitX=0.5;exitY=0;exitDx=0;exitDy=0;entryX=0.5;entryY=1;entryDx=0;entryDy=0;" edge="1" parent="1" source="y_ctaizk5qaqds1_ViT8-8" target="y_ctaizk5qaqds1_ViT8-3">
          <mxGeometry relative="1" as="geometry" />
        </mxCell>
        <mxCell id="y_ctaizk5qaqds1_ViT8-8" value="User C&lt;span style=&quot;font-size: 12px&quot;&gt;ustom Class Loader&lt;/span&gt;" style="rounded=1;whiteSpace=wrap;html=1;" vertex="1" parent="1">
          <mxGeometry x="560" y="440" width="220" height="60" as="geometry" />
        </mxCell>
        <mxCell id="y_ctaizk5qaqds1_ViT8-11" value="&lt;font style=&quot;font-size: 22px&quot;&gt;&lt;b&gt;The parent delegation model&lt;/b&gt;&lt;/font&gt;" style="text;html=1;fillColor=none;align=center;verticalAlign=middle;whiteSpace=wrap;rounded=0;dashed=1;" vertex="1" parent="1">
          <mxGeometry x="360" y="70" width="320" height="40" as="geometry" />
        </mxCell>
        <mxCell id="y_ctaizk5qaqds1_ViT8-12" value="" style="rounded=0;whiteSpace=wrap;html=1;dashed=1;strokeColor=#000000;fillColor=none;" vertex="1" parent="1">
          <mxGeometry x="200" y="50" width="640" height="520" as="geometry" />
        </mxCell>
        <mxCell id="y_ctaizk5qaqds1_ViT8-13" value="&lt;font style=&quot;font-size: 18px&quot; color=&quot;#66b2ff&quot;&gt;Before JDK9&lt;/font&gt;" style="rounded=0;whiteSpace=wrap;html=1;dashed=1;fillColor=none;strokeWidth=2;strokeColor=#66B2FF;" vertex="1" parent="1">
          <mxGeometry x="700" y="60" width="120" height="60" as="geometry" />
        </mxCell>
      </root>
    </mxGraphModel>
  </diagram>
</mxfile>
